<svg id="b" xmlns="http://www.w3.org/2000/svg" viewBox="0 0 581.61 107.48"><defs><style>.d,.e{fill:#fff}.e{fill-rule:evenodd}</style></defs><g id="c"><path class="d" d="M200.06 29.74a2.375 2.375 0 0 0-1.94-1.01h-4.81c-1.01 0-1.91.64-2.24 1.6l-11.74 34.15-11.75-34.33c-.33-.96-1.23-1.6-2.24-1.6h-3.54c-1.01 0-1.91.64-2.24 1.6l-11.75 34.33-11.74-34.15c-.33-.95-1.23-1.6-2.24-1.6h-5c-.77 0-1.49.38-1.94 1.01-.44.63-.55 1.44-.29 2.17l16.98 46.66c.34.93 1.23 1.56 2.22 1.56h3.82c1 0 1.9-.64 2.23-1.58l11.65-33.28 11.57 33.27c.33.95 1.23 1.59 2.23 1.59h3.81c.99 0 1.88-.62 2.22-1.56l16.98-46.66c.26-.72.16-1.53-.29-2.17zm26.93-2.09c-14.71 0-26.24 11.69-26.24 26.6v.18c0 14.82 11.44 26.42 26.06 26.42s26.24-11.69 26.24-26.6v-.18c0-14.81-11.45-26.42-26.06-26.42zm0 44.3c-9.36 0-16.7-7.77-16.7-17.7v-.18c0-9.99 7.1-17.52 16.52-17.52s16.7 7.78 16.7 17.7v.18c0 9.99-7.1 17.52-16.52 17.52zM288 28.01c-7.03-.27-13.54 2.75-18.24 8.12V31.1c0-1.31-1.06-2.37-2.36-2.37h-4.45a2.36 2.36 0 0 0-2.36 2.37v46.3c0 1.31 1.06 2.37 2.36 2.37h4.45c1.3 0 2.36-1.06 2.36-2.37V58.42c0-14.36 8.89-20.79 17.7-20.79h.45c1.31 0 2.37-1.06 2.37-2.36v-4.9c0-1.27-1-2.31-2.27-2.36zm14.88-19.25h-4.45c-1.31 0-2.37 1.06-2.37 2.36V77.4c0 1.31 1.06 2.37 2.37 2.37h4.45c1.31 0 2.37-1.06 2.37-2.37V11.13a2.36 2.36 0 0 0-2.37-2.36zm58.11 0h-4.45c-1.31 0-2.37 1.06-2.37 2.36v23.36c-4.63-4.5-10.31-6.84-16.7-6.84-12.23 0-24.88 9.95-24.88 26.6v.18c0 16.54 12.65 26.42 24.88 26.42 6.4 0 12-2.38 16.7-7.1v3.65c0 1.31 1.06 2.37 2.37 2.37h4.45c1.3 0 2.36-1.06 2.36-2.37V11.13c0-1.31-1.06-2.36-2.36-2.36zm-23.06 63.1c-7.84 0-15.79-6.05-15.79-17.61v-.18c0-10.42 6.35-17.42 15.79-17.42 7.95 0 16.52 6.7 16.52 17.52v.18c0 10.82-8.57 17.52-16.52 17.52zm92.16-43.85c-7.03-.27-13.54 2.75-18.25 8.12V31.1c0-1.31-1.06-2.37-2.36-2.37h-4.45c-1.31 0-2.37 1.06-2.37 2.37v46.3c0 1.31 1.06 2.37 2.37 2.37h4.45a2.36 2.36 0 0 0 2.36-2.37V58.42c0-14.36 8.89-20.79 17.7-20.79h.46c1.31 0 2.37-1.06 2.37-2.36v-4.9c0-1.27-1-2.31-2.27-2.36zm96.87 36.82c-.97-.86-2.46-.77-3.33.19-4.18 4.67-8.68 6.93-13.76 6.93-9.36 0-16.7-7.77-16.7-17.7v-.18c0-9.82 7.17-17.52 16.33-17.52 5.8 0 9.69 2.77 13.75 6.92.45.45 1.06.71 1.69.71.64 0 1.25-.26 1.69-.72l3.18-3.27c.89-.91.89-2.36.01-3.28-4.14-4.31-10.18-9.26-20.23-9.26-14.32 0-25.97 11.94-25.97 26.6v.18c0 14.57 11.65 26.42 25.97 26.42 10.64 0 16.89-5.69 20.66-9.97.86-.98.77-2.48-.21-3.34l-3.09-2.72zM558 27.65c-13.65 0-24.34 11.65-24.34 26.52v.18c0 15.11 10.78 26.51 25.06 26.51 10.72 0 16.79-5.06 20.89-9.47.43-.46.66-1.09.63-1.73a2.35 2.35 0 0 0-.8-1.65l-3.08-2.73c-.96-.84-2.42-.77-3.29.16-4.15 4.44-8.65 6.51-14.16 6.51-6.5 0-13.75-4.25-15.48-13.52h35.72c1.19 0 2.2-.89 2.35-2.07.11-.87.11-1.26.11-2.11 0-15.66-9.71-26.6-23.61-26.6zm-.18 8.81c8.65 0 12.78 6.45 13.95 13.25h-28.31c1.57-7.81 7.3-13.25 14.36-13.25zm-100.49-8.28h-15.01c-1.36 0-2.35 1.09-2.35 2.35v4.45c0 1.64 1.38 2.35 2.41 2.35h15.26c4.68 0 10.27 3.58 10.27 10.35s-5.98-1.22-12.98-1.22-22.61 2.69-22.61 17.44S449 80.97 452.57 80.97c9.57 0 15.34-5.22 15.34-5.23v1.77c0 1.08.78 2.34 2.36 2.34h4.37c1.3 0 2.35-.99 2.35-2.34V47.82c0-8.92-6.56-19.66-19.66-19.66zm-4.5 43.89c-6.62 0-11.07-3.57-11.07-8.25s3.54-8.62 12.89-8.62c8.6 0 12.65 1.33 13.25 1.55v5.06c-.81 5.85-7.17 10.27-15.07 10.27z"/><path class="e" d="M53.74 0C24.06 0 0 24.06 0 53.74s24.06 53.74 53.74 53.74 53.74-24.06 53.74-53.74S83.42 0 53.74 0zm19.21 67.28l-5.48-8.23h-.08l-.38-.08 2.07-5.9.06.07c2.56 0 4.04-1.24 4.04-3.23v-.08c0-2.14-1.55-3.23-4.08-3.23h-3.22l-6.92 20.86h-6.57L46.91 51.8l-5.44 15.66H34.9l-9.09-27.39h7.97l4.74 15.73 5.24-15.81h6.49L55.5 55.8l4.74-15.73h9.96c4.16 0 6.32 1.09 8.15 2.95 1.59 1.55 2.41 3.65 2.41 6.33v.08c0 4.16-2.22 6.92-5.6 8.35l6.49 9.48h-8.7z"/></g></svg>