
<!-- Generator: visioncortex VTracer 0.6.4 -->
<svg version="1.1" xmlns="http://www.w3.org/2000/svg" viewBox="0 0 612 568" preserveAspectRatio="xMidYMid meet">
<path d="M0 0 C1.364 -0.001 1.364 -0.001 2.756 -0.002 C17.841 0.016 32.536 0.713 47.438 3.25 C48.423 3.416 49.409 3.583 50.425 3.754 C114.798 15.038 178.495 50.875 218.438 103.25 C219.424 104.487 220.413 105.722 221.402 106.957 C250.099 143.132 268.156 185.946 276.438 231.25 C276.615 232.209 276.793 233.167 276.977 234.155 C282.096 263.302 281.699 296.136 276.438 325.25 C276.261 326.248 276.084 327.246 275.901 328.274 C266.66 379.02 243.905 425.869 209.438 464.25 C208.955 464.795 208.472 465.339 207.974 465.9 C189.144 487.101 166.945 504.988 142.438 519.25 C141.734 519.664 141.031 520.077 140.307 520.503 C106.325 540.356 67.673 552.749 28.438 556.25 C27.397 556.36 26.357 556.469 25.285 556.582 C-48.213 563.264 -121.534 539.188 -178.098 492.336 C-191.73 480.871 -204.727 468.42 -215.562 454.25 C-216.754 452.75 -216.754 452.75 -217.969 451.219 C-264.717 392.082 -283.645 317.659 -275.562 243.25 C-268.547 185.468 -242.278 126.369 -199.969 85.656 C-198.393 84.139 -198.393 84.139 -196.625 81.75 C-194.272 78.898 -191.681 76.642 -188.871 74.25 C-186.371 72.084 -183.975 69.826 -181.562 67.562 C-140.283 30.036 -85.533 7.847 -30.562 1.25 C-29.791 1.154 -29.019 1.059 -28.224 0.96 C-18.846 -0.053 -9.422 0.006 0 0 Z " fill="#FDFDFD" transform="translate(300.5625,5.75)"/>
<path d="M0 0 C1.364 -0.001 1.364 -0.001 2.756 -0.002 C17.841 0.016 32.536 0.713 47.438 3.25 C48.423 3.416 49.409 3.583 50.425 3.754 C114.798 15.038 178.495 50.875 218.438 103.25 C219.424 104.487 220.413 105.722 221.402 106.957 C250.099 143.132 268.156 185.946 276.438 231.25 C276.615 232.209 276.793 233.167 276.977 234.155 C282.096 263.302 281.699 296.136 276.438 325.25 C276.261 326.248 276.084 327.246 275.901 328.274 C266.66 379.02 243.905 425.869 209.438 464.25 C208.955 464.795 208.472 465.339 207.974 465.9 C189.144 487.101 166.945 504.988 142.438 519.25 C141.734 519.664 141.031 520.077 140.307 520.503 C106.325 540.356 67.673 552.749 28.438 556.25 C27.397 556.36 26.357 556.469 25.285 556.582 C-48.213 563.264 -121.534 539.188 -178.098 492.336 C-191.73 480.871 -204.727 468.42 -215.562 454.25 C-216.754 452.75 -216.754 452.75 -217.969 451.219 C-264.717 392.082 -283.645 317.659 -275.562 243.25 C-268.547 185.468 -242.278 126.369 -199.969 85.656 C-198.393 84.139 -198.393 84.139 -196.625 81.75 C-194.272 78.898 -191.681 76.642 -188.871 74.25 C-186.371 72.084 -183.975 69.826 -181.562 67.562 C-140.283 30.036 -85.533 7.847 -30.562 1.25 C-29.791 1.154 -29.019 1.059 -28.224 0.96 C-18.846 -0.053 -9.422 0.006 0 0 Z M-33.562 68.25 C-34.66 68.442 -35.757 68.634 -36.888 68.831 C-74.375 75.714 -108.66 91.231 -137.562 116.25 C-138.367 116.944 -139.171 117.637 -140 118.352 C-142.562 120.61 -145.07 122.915 -147.562 125.25 C-148.055 125.708 -148.547 126.167 -149.054 126.639 C-158.35 135.364 -166.139 144.9 -173.562 155.25 C-174.018 155.882 -174.473 156.513 -174.941 157.164 C-194.852 185.098 -206.534 217.472 -211.562 251.25 C-211.668 251.932 -211.773 252.614 -211.882 253.317 C-212.914 261.039 -212.761 268.85 -212.75 276.625 C-212.749 277.383 -212.749 278.141 -212.748 278.922 C-212.709 296.92 -210.989 313.778 -206.562 331.25 C-206.276 332.405 -205.99 333.56 -205.695 334.75 C-199.427 358.269 -189.073 381.637 -174.562 401.25 C-174.179 401.772 -173.795 402.294 -173.4 402.832 C-168.467 409.511 -163.271 415.882 -157.637 421.988 C-155.761 424.033 -153.972 426.126 -152.188 428.25 C-118.471 466.651 -64.272 488.475 -14.243 492.089 C37.827 495.219 89.485 479.763 130.438 447.25 C131.253 446.638 132.069 446.025 132.91 445.395 C154.8 428.444 171.747 407.107 185.438 383.25 C185.807 382.614 186.177 381.978 186.558 381.322 C195.054 366.584 201.24 350.718 205.438 334.25 C205.774 333.06 206.11 331.87 206.457 330.645 C214.318 301.762 214.866 270.617 209.438 241.25 C209.229 240.048 209.229 240.048 209.016 238.822 C200.144 188.345 170.328 140.147 129.168 109.541 C127.504 108.299 125.859 107.034 124.215 105.766 C104.158 90.578 80.573 80.026 56.438 73.25 C54.603 72.712 54.603 72.712 52.73 72.164 C34.684 67.22 16.445 65.973 -2.188 65.938 C-2.948 65.934 -3.708 65.93 -4.491 65.927 C-14.353 65.902 -23.824 66.525 -33.562 68.25 Z " fill="#FCFCFC" transform="translate(300.5625,5.75)"/>
<path d="M0 0 C10.223 -0.163 20.446 -0.287 30.67 -0.363 C35.419 -0.399 40.167 -0.448 44.915 -0.528 C49.506 -0.605 54.096 -0.646 58.687 -0.664 C60.43 -0.677 62.173 -0.702 63.916 -0.74 C75.14 -0.975 82.734 -0.052 92 7 C92.943 7.694 93.886 8.388 94.858 9.104 C106.09 17.566 111.867 27.162 115 41 C118.402 66.514 116.206 89.382 101.094 110.688 C93.519 119.876 81.977 127.079 69.992 128.309 C61.926 128.484 54.252 127.626 47 124 C47.33 134.89 47.66 145.78 48 157 C67.557 145.682 67.557 145.682 86.823 133.883 C93.388 129.725 100.04 125.712 106.688 121.688 C118.503 114.53 130.282 107.316 142 100 C142.85 99.47 143.7 98.94 144.575 98.394 C149.402 95.38 154.211 92.342 159 89.269 C160.787 88.135 162.595 87.036 164.406 85.941 C166.823 84.418 168.979 83.016 171 81 C172.001 77.631 172.001 77.631 171 74 C170.84 73.121 170.68 72.242 170.516 71.336 C170.059 68.877 169.55 66.439 169 64 C170.98 63.67 172.96 63.34 175 63 C175.406 63.712 175.812 64.424 176.231 65.158 C186.106 82.466 196.025 99.748 206 117 C204.02 118.98 204.02 118.98 202 121 C201.374 120.506 200.747 120.013 200.102 119.504 C199.284 118.863 198.467 118.223 197.625 117.562 C196.813 116.924 196.001 116.286 195.164 115.629 C191.186 112.635 188.684 112.796 183.841 113.353 C178.576 114.553 174.372 117.482 169.875 120.375 C168.232 121.396 166.588 122.417 164.943 123.436 C163.779 124.158 162.617 124.882 161.457 125.608 C155.184 129.533 148.82 133.299 142.449 137.061 C139.735 138.665 137.024 140.274 134.313 141.883 C129.522 144.727 124.73 147.568 119.937 150.409 C105.638 158.886 91.344 167.373 77.083 175.915 C75.744 176.717 74.404 177.519 73.064 178.32 C71.22 179.423 69.378 180.527 67.535 181.633 C66.487 182.261 65.439 182.889 64.36 183.536 C62.127 184.797 62.127 184.797 61 186 C61.499 186.294 61.998 186.589 62.512 186.892 C68.744 190.569 74.973 194.251 81.201 197.936 C82.416 198.654 83.631 199.373 84.846 200.091 C99.882 208.983 114.896 217.907 129.812 227 C139.729 233.043 149.684 238.994 159.787 244.721 C162.128 246.074 164.433 247.478 166.738 248.891 C177.346 255.318 177.346 255.318 189.52 256.645 C194.463 255.36 198.126 252.21 202 249 C203.562 250.188 203.562 250.188 205 252 C204.606 255.951 203.225 258.646 201.113 261.965 C200.511 262.92 199.909 263.875 199.288 264.858 C198.636 265.875 197.984 266.891 197.312 267.938 C196.646 268.988 195.979 270.039 195.292 271.122 C193.898 273.317 192.501 275.51 191.102 277.701 C189.063 280.902 187.044 284.114 185.031 287.332 C183.792 289.305 182.552 291.278 181.312 293.25 C180.737 294.172 180.162 295.093 179.57 296.043 C179.027 296.9 178.485 297.757 177.926 298.641 C177.221 299.763 177.221 299.763 176.501 300.907 C174.864 303.19 173.033 305.067 171 307 C168.105 304.105 168.617 301.012 168.5 297.125 C168.563 290.669 168.563 290.669 166 285 C163.753 283.388 161.559 281.964 159.188 280.562 C157.724 279.673 156.26 278.784 154.797 277.895 C154.016 277.425 153.236 276.955 152.432 276.471 C149.116 274.465 145.827 272.415 142.537 270.367 C131.374 263.422 120.144 256.59 108.907 249.766 C104.103 246.847 99.302 243.923 94.5 241 C88.633 237.429 82.767 233.858 76.898 230.289 C75.385 229.369 75.385 229.369 73.842 228.43 C71.945 227.276 70.048 226.122 68.15 224.969 C63.144 221.923 58.147 218.863 53.157 215.791 C52.561 215.424 51.966 215.058 51.353 214.68 C49.902 213.787 48.451 212.893 47 212 C46.967 230.116 46.974 248.231 47.028 266.347 C47.053 274.759 47.064 283.17 47.045 291.582 C47.028 298.916 47.035 306.249 47.072 313.583 C47.091 317.464 47.098 321.345 47.075 325.227 C47.053 328.885 47.065 332.541 47.102 336.199 C47.113 338.173 47.09 340.146 47.066 342.12 C47.175 349.321 48.013 353.444 53.201 358.599 C55.686 360.534 57.932 361.347 61 362 C63 362.667 65 363.333 67 364 C67 366.31 67 368.62 67 371 C44.89 371 22.78 371 0 371 C0 368.69 0 366.38 0 364 C0.652 363.792 1.305 363.585 1.977 363.371 C8.255 361.158 12.657 358.902 16 353 C17.207 345.62 17.17 338.233 17.205 330.769 C17.215 329.471 17.225 328.172 17.235 326.834 C17.262 323.3 17.283 319.765 17.303 316.231 C17.325 312.527 17.353 308.824 17.379 305.12 C17.429 298.119 17.474 291.117 17.517 284.116 C17.567 276.14 17.622 268.164 17.677 260.188 C17.791 243.792 17.898 227.396 18 211 C13.698 213.549 9.398 216.1 5.097 218.651 C3.641 219.514 2.185 220.378 0.728 221.241 C-8.883 226.937 -18.462 232.682 -28 238.5 C-38.024 244.607 -48.089 250.641 -58.188 256.625 C-59.535 257.424 -60.882 258.223 -62.23 259.022 C-64.217 260.2 -66.205 261.378 -68.192 262.557 C-70.128 263.704 -72.064 264.852 -74 266 C-74.626 266.371 -75.251 266.742 -75.896 267.124 C-79.997 269.556 -84.093 271.995 -88.188 274.438 C-89.214 275.046 -90.241 275.655 -91.3 276.282 C-100.371 281.039 -100.371 281.039 -106 289 C-106.14 291.788 -106.189 294.468 -106.125 297.25 C-106.116 297.995 -106.107 298.74 -106.098 299.508 C-106.074 301.339 -106.038 303.169 -106 305 C-107.65 305.66 -109.3 306.32 -111 307 C-115.759 300.133 -120.014 293 -124.206 285.78 C-126.075 282.562 -127.952 279.35 -129.828 276.137 C-130.192 275.513 -130.556 274.889 -130.931 274.247 C-134.892 267.461 -138.927 260.719 -143 254 C-141.02 252.02 -141.02 252.02 -139 250 C-135.583 251.503 -132.985 253.567 -130.172 255.977 C-126.153 257.87 -122.069 257.637 -117.912 256.356 C-115.659 255.43 -113.491 254.403 -111.312 253.312 C-110.079 252.71 -110.079 252.71 -108.82 252.096 C-99.841 247.599 -91.425 242.242 -82.958 236.861 C-77.493 233.423 -71.962 230.092 -66.438 226.75 C-65.246 226.028 -64.055 225.306 -62.864 224.584 C-61.057 223.489 -59.25 222.394 -57.443 221.299 C-53.249 218.758 -49.057 216.212 -44.867 213.664 C-29.611 204.387 -14.322 195.167 1 186 C-2.455 183.118 -5.952 180.736 -9.848 178.488 C-10.688 178 -10.688 178 -11.545 177.503 C-12.752 176.802 -13.959 176.104 -15.168 175.406 C-18.441 173.517 -21.705 171.612 -24.969 169.707 C-25.64 169.316 -26.311 168.924 -27.002 168.521 C-33.733 164.586 -40.405 160.557 -47.062 156.5 C-47.636 156.151 -48.209 155.802 -48.8 155.442 C-52.286 153.319 -55.77 151.193 -59.254 149.066 C-73.537 140.348 -87.832 131.65 -102.202 123.074 C-103.39 122.365 -104.577 121.653 -105.762 120.94 C-107.401 119.955 -109.044 118.977 -110.688 118 C-111.619 117.443 -112.551 116.886 -113.512 116.312 C-118.93 113.455 -124.997 112.967 -131 114 C-134.394 115.95 -137.193 118.283 -140 121 C-141.32 120.34 -142.64 119.68 -144 119 C-144 114.691 -143.457 113.611 -141.281 110.055 C-140.388 108.58 -140.388 108.58 -139.478 107.076 C-138.825 106.02 -138.172 104.963 -137.5 103.875 C-136.835 102.785 -136.169 101.695 -135.483 100.572 C-134.066 98.251 -132.643 95.933 -131.217 93.616 C-129.344 90.569 -127.495 87.509 -125.654 84.443 C-124.209 82.039 -122.756 79.639 -121.302 77.24 C-120.602 76.082 -119.904 74.923 -119.21 73.762 C-118.237 72.138 -117.251 70.522 -116.266 68.906 C-115.706 67.981 -115.147 67.056 -114.571 66.104 C-113 64 -113 64 -110 63 C-109.01 63.66 -108.02 64.32 -107 65 C-107.248 66.485 -107.248 66.485 -107.5 68 C-107.672 69.333 -107.838 70.666 -108 72 C-108.165 73.299 -108.33 74.599 -108.5 75.938 C-108.423 80.389 -106.315 82.745 -103.41 85.945 C-96.487 91.847 -88.374 96.203 -80.531 100.745 C-69.946 106.877 -59.438 113.122 -49 119.5 C-38.375 125.99 -27.678 132.342 -16.908 138.59 C-9.223 143.062 -1.616 147.651 5.975 152.281 C7.038 152.928 8.101 153.575 9.196 154.243 C11.797 155.828 14.399 157.414 17 159 C17.023 142.257 17.041 125.515 17.052 108.772 C17.057 100.997 17.064 93.222 17.075 85.447 C17.085 78.666 17.092 71.885 17.094 65.103 C17.095 61.517 17.098 57.931 17.106 54.344 C17.114 50.328 17.114 46.312 17.114 42.296 C17.117 41.123 17.121 39.951 17.124 38.743 C17.815 24.137 17.815 24.137 13 11 C9.705 9.147 9.705 9.147 6 8 C4.866 7.608 3.731 7.216 2.562 6.812 C1.717 6.544 0.871 6.276 0 6 C0 4.02 0 2.04 0 0 Z " fill="#040404" transform="translate(270,103)"/>
<path d="M0 0 C1.364 -0.001 1.364 -0.001 2.756 -0.002 C17.841 0.016 32.536 0.713 47.438 3.25 C48.423 3.416 49.409 3.583 50.425 3.754 C114.798 15.038 178.495 50.875 218.438 103.25 C219.424 104.487 220.413 105.722 221.402 106.957 C250.099 143.132 268.156 185.946 276.438 231.25 C276.615 232.209 276.793 233.167 276.977 234.155 C282.096 263.302 281.699 296.136 276.438 325.25 C276.261 326.248 276.084 327.246 275.901 328.274 C266.66 379.02 243.905 425.869 209.438 464.25 C208.955 464.795 208.472 465.339 207.974 465.9 C189.144 487.101 166.945 504.988 142.438 519.25 C141.734 519.664 141.031 520.077 140.307 520.503 C106.325 540.356 67.673 552.749 28.438 556.25 C27.397 556.36 26.357 556.469 25.285 556.582 C-48.213 563.264 -121.534 539.188 -178.098 492.336 C-191.73 480.871 -204.727 468.42 -215.562 454.25 C-216.754 452.75 -216.754 452.75 -217.969 451.219 C-264.717 392.082 -283.645 317.659 -275.562 243.25 C-268.547 185.468 -242.278 126.369 -199.969 85.656 C-198.393 84.139 -198.393 84.139 -196.625 81.75 C-194.272 78.898 -191.681 76.642 -188.871 74.25 C-186.371 72.084 -183.975 69.826 -181.562 67.562 C-140.283 30.036 -85.533 7.847 -30.562 1.25 C-29.791 1.154 -29.019 1.059 -28.224 0.96 C-18.846 -0.053 -9.422 0.006 0 0 Z M-60.562 14.25 C-61.535 14.466 -62.507 14.683 -63.509 14.906 C-79.186 18.467 -93.821 23.878 -108.562 30.25 C-109.354 30.588 -110.145 30.925 -110.959 31.273 C-136.243 42.172 -159.138 57.903 -179.562 76.25 C-180.112 76.738 -180.662 77.226 -181.229 77.729 C-194.036 89.121 -205.287 101.539 -215.562 115.25 C-215.993 115.824 -216.424 116.397 -216.867 116.988 C-243.562 152.823 -261.24 195.009 -267.562 239.25 C-267.83 241.092 -267.83 241.092 -268.102 242.971 C-269.512 253.33 -269.874 263.559 -269.823 274.006 C-269.813 276.616 -269.823 279.226 -269.836 281.836 C-269.845 293.421 -269.027 304.762 -267.562 316.25 C-267.462 317.045 -267.362 317.839 -267.259 318.658 C-258.956 383.658 -222.017 448.484 -170.406 489.09 C-169.468 489.803 -168.529 490.516 -167.562 491.25 C-167.028 491.661 -166.493 492.073 -165.941 492.497 C-130.537 519.622 -89.575 538.482 -45.562 546.25 C-44.788 546.4 -44.013 546.549 -43.215 546.703 C-14.453 552.136 17.658 551.122 46.438 546.25 C47.84 546.041 49.242 545.834 50.645 545.629 C104.525 536.84 153.462 508.653 192.438 471.25 C193.332 470.397 194.227 469.543 195.148 468.664 C200.564 463.382 205.49 457.847 210.152 451.89 C211.064 450.726 211.981 449.567 212.902 448.411 C243.831 409.528 264.127 363.651 270.438 314.25 C270.553 313.373 270.669 312.496 270.788 311.593 C274.676 280.867 273.685 248.63 266.022 218.577 C265.382 216.03 264.791 213.473 264.199 210.914 C259.303 190.352 251.447 170.848 241.438 152.25 C241.062 151.538 240.686 150.827 240.298 150.093 C228.802 128.377 214.49 108.918 197.438 91.25 C196.466 90.238 196.466 90.238 195.475 89.205 C186.82 80.227 178.054 71.834 168.014 64.425 C166.536 63.323 165.087 62.182 163.641 61.039 C140.022 42.558 112.845 29.468 84.438 20.25 C83.437 19.921 82.437 19.593 81.406 19.254 C67.185 14.643 53.029 11.604 38.216 9.625 C35.802 9.299 33.396 8.94 30.988 8.566 C0.568 4.174 -30.804 7.531 -60.562 14.25 Z " fill="#0B0B0B" transform="translate(300.5625,5.75)"/>
<path d="M0 0 C-0.364 1.437 -0.364 1.437 -0.734 2.902 C-3.257 12.912 -5.661 22.946 -8 33 C-7.334 32.931 -6.668 32.861 -5.981 32.79 C3.096 31.932 12.14 31.758 21.25 31.75 C22.04 31.749 22.829 31.748 23.643 31.747 C37.276 31.759 50.556 32.602 64 35 C64.8 35.139 65.599 35.278 66.423 35.422 C103.073 42.044 137.611 60.435 165.461 84.82 C167.992 87.082 167.992 87.082 171 89 C173.689 86.481 176.376 83.959 179.062 81.438 C179.815 80.733 180.567 80.029 181.342 79.303 C185.978 74.948 190.535 70.53 195 66 C196.709 67.623 198.374 69.293 200 71 C200 71.66 200 72.32 200 73 C200.928 73.412 201.856 73.825 202.812 74.25 C206.005 76.003 207.191 76.932 209 80 C209.42 84.7 208.657 88.857 206.312 92.938 C202.547 96.296 199.465 97.82 194.438 98.438 C190.306 97.912 188.691 97.181 186 94 C185.688 90.25 185.688 90.25 186 87 C184.658 88.093 183.327 89.2 182 90.312 C180.886 91.235 180.886 91.235 179.75 92.176 C177.654 93.94 177.654 93.94 178 97 C179.926 99.254 179.926 99.254 182.375 101.5 C184.952 103.954 187.019 106.029 189 109 C193.369 107.538 196.638 105.162 200.188 102.312 C205.659 98.005 211.244 93.924 217 90 C219.5 92.312 219.5 92.312 222 95 C222 95.99 222 96.98 222 98 C223.643 99.038 225.312 100.036 227 101 C229.503 104.755 229.453 106.547 229 111 C226.565 115.777 223.819 118.636 219 121 C215.863 121.593 213.129 121.663 210 121 C206.411 118.458 205.235 116.959 204.188 112.688 C204.095 111.357 204.095 111.357 204 110 C201.36 111.98 198.72 113.96 196 116 C197.571 119.143 199.239 121.889 201.223 124.769 C211.43 139.609 219.578 155.176 226 172 C226.278 172.726 226.557 173.452 226.843 174.201 C231.698 187.131 234.566 200.427 237 214 C237.201 215.086 237.201 215.086 237.407 216.194 C241.454 238.978 240.123 264.383 236 287 C235.861 287.783 235.722 288.566 235.578 289.373 C229.247 323.822 213.578 357.257 191 384 C190.51 384.59 190.02 385.18 189.515 385.788 C179.927 397.334 169.827 407.704 158 417 C156.486 418.222 156.486 418.222 154.941 419.469 C147.052 425.77 138.783 431.037 130 436 C129.361 436.37 128.723 436.74 128.065 437.121 C115.621 444.297 102.53 449.257 89 454 C87.808 454.433 86.615 454.866 85.387 455.312 C74.931 458.858 63.884 460.356 53 462 C52.199 462.121 51.397 462.243 50.572 462.368 C-3.546 470.245 -59.909 454.821 -103.809 422.675 C-112.196 416.413 -120.013 409.598 -127.572 402.365 C-128.848 401.146 -130.136 399.939 -131.426 398.734 C-138.025 392.405 -143.521 385.293 -149 378 C-149.435 377.426 -149.87 376.852 -150.318 376.26 C-157.073 367.291 -162.809 357.952 -168 348 C-168.37 347.298 -168.74 346.597 -169.121 345.874 C-183.027 319.148 -192.013 288.131 -192.203 257.863 C-192.21 257.11 -192.217 256.357 -192.225 255.581 C-192.341 239.516 -192.37 223.781 -189 208 C-188.796 207.017 -188.592 206.034 -188.382 205.021 C-180.051 165.668 -162.511 130.462 -135 101 C-133.478 99.272 -131.957 97.542 -130.438 95.812 C-126.54 91.5 -122.496 87.677 -118 84 C-117.482 83.57 -116.964 83.139 -116.43 82.696 C-88.032 59.146 -53.876 40.552 -17 35 C-15.463 30.704 -14.188 26.87 -16.07 22.536 C-17.749 20.096 -19.529 17.828 -21.438 15.562 C-22.695 14.008 -23.944 12.447 -25.184 10.879 C-25.746 10.204 -26.309 9.529 -26.888 8.834 C-27.439 7.926 -27.439 7.926 -28 7 C-27.67 6.01 -27.34 5.02 -27 4 C-24.273 3.695 -24.273 3.695 -21 4 C-18.664 6.117 -18.664 6.117 -16.625 8.875 C-15.937 9.78 -15.248 10.685 -14.539 11.617 C-13 14 -13 14 -13 16 C-12.34 16 -11.68 16 -11 16 C-10.927 15.13 -10.927 15.13 -10.852 14.242 C-10.408 9.608 -9.932 5.293 -8 1 C-5.072 0.024 -3.044 -0.082 0 0 Z M-10 37 C-11.097 37.192 -12.195 37.384 -13.326 37.581 C-50.813 44.464 -85.097 59.981 -114 85 C-114.804 85.694 -115.609 86.387 -116.438 87.102 C-119 89.36 -121.507 91.665 -124 94 C-124.492 94.458 -124.985 94.917 -125.492 95.389 C-134.788 104.114 -142.576 113.65 -150 124 C-150.455 124.632 -150.91 125.263 -151.379 125.914 C-171.289 153.848 -182.972 186.222 -188 220 C-188.105 220.682 -188.211 221.364 -188.319 222.067 C-189.352 229.789 -189.199 237.6 -189.188 245.375 C-189.187 246.133 -189.186 246.891 -189.186 247.672 C-189.147 265.67 -187.427 282.528 -183 300 C-182.714 301.155 -182.428 302.31 -182.133 303.5 C-175.865 327.019 -165.51 350.387 -151 370 C-150.616 370.522 -150.233 371.044 -149.837 371.582 C-144.905 378.261 -139.708 384.632 -134.074 390.738 C-132.199 392.783 -130.41 394.876 -128.625 397 C-94.909 435.401 -40.709 457.225 9.32 460.839 C61.389 463.969 113.047 448.513 154 416 C154.816 415.388 155.632 414.775 156.473 414.145 C178.362 397.194 195.309 375.857 209 352 C209.37 351.364 209.739 350.728 210.12 350.072 C218.617 335.334 224.802 319.468 229 303 C229.336 301.81 229.673 300.62 230.02 299.395 C237.881 270.512 238.429 239.367 233 210 C232.791 208.798 232.791 208.798 232.578 207.572 C223.707 157.095 193.891 108.897 152.731 78.291 C151.066 77.049 149.422 75.784 147.777 74.516 C127.72 59.328 104.136 48.776 80 42 C78.165 41.462 78.165 41.462 76.293 40.914 C58.247 35.97 40.008 34.723 21.375 34.688 C20.615 34.684 19.855 34.68 19.071 34.677 C9.209 34.652 -0.262 35.275 -10 37 Z " fill="#131313" transform="translate(277,37)"/>
<path d="M0 0 C8.863 3.153 12.276 8.678 16.172 16.859 C25.104 37.34 22.286 68.804 14.926 89.555 C12.708 94.758 9.97 99.071 6.238 103.305 C5.31 104.48 5.31 104.48 4.363 105.68 C-0.865 109.678 -7.467 109.614 -13.762 109.305 C-15.432 108.992 -17.1 108.663 -18.762 108.305 C-18.877 94.684 -18.966 81.063 -19.021 67.441 C-19.047 61.116 -19.082 54.792 -19.139 48.467 C-19.193 42.366 -19.223 36.265 -19.236 30.163 C-19.245 27.833 -19.263 25.503 -19.29 23.173 C-19.327 19.914 -19.332 16.657 -19.329 13.397 C-19.347 12.43 -19.365 11.463 -19.384 10.466 C-19.333 3.929 -19.333 3.929 -16.385 0.707 C-11.146 -2.093 -5.633 -1.418 0 0 Z " fill="#FDFDFD" transform="translate(336.76171875,111.6953125)"/>
<path d="M0 0 C8.059 1.596 15.763 4.071 23.562 6.625 C24.87 7.05 26.178 7.474 27.486 7.898 C30.659 8.929 33.83 9.963 37 11 C36.125 15.75 36.125 15.75 35 18 C29.201 17.432 24.023 16.263 18.5 14.438 C17.773 14.204 17.046 13.97 16.297 13.729 C14.529 13.159 12.764 12.58 11 12 C13.621 14.483 16.248 16.961 18.875 19.438 C19.995 20.498 19.995 20.498 21.137 21.58 C22.21 22.59 22.21 22.59 23.305 23.621 C23.965 24.244 24.624 24.867 25.304 25.51 C26.943 27.078 26.943 27.078 29 28 C28.67 29.32 28.34 30.64 28 32 C19.203 32.381 10.688 31.207 2 30 C2.855 30.514 2.855 30.514 3.728 31.038 C6.306 32.596 8.872 34.173 11.438 35.75 C12.335 36.289 13.233 36.828 14.158 37.383 C15.012 37.911 15.866 38.44 16.746 38.984 C17.537 39.466 18.328 39.948 19.142 40.444 C21.306 42.256 21.75 43.219 22 46 C21.062 48.25 21.062 48.25 20 50 C15.829 48.747 12.427 47.215 8.777 44.848 C7.827 44.236 6.876 43.624 5.896 42.994 C4.92 42.357 3.944 41.719 2.938 41.062 C0.989 39.803 -0.961 38.544 -2.91 37.285 C-4.196 36.448 -4.196 36.448 -5.508 35.594 C-7.978 34.014 -10.478 32.496 -13 31 C-12.431 27.019 -11.123 24.387 -9 21 C-7.903 21.144 -6.806 21.289 -5.676 21.438 C-4.221 21.625 -2.767 21.813 -1.312 22 C-0.591 22.095 0.13 22.191 0.873 22.289 C4.61 22.767 8.223 23.119 12 23 C10.441 21.413 8.877 19.831 7.312 18.25 C6.442 17.368 5.572 16.487 4.676 15.578 C2.22 13.212 -0.301 11.081 -3 9 C-2.01 6.03 -1.02 3.06 0 0 Z " fill="#0A0A0A" transform="translate(71,159)"/>
<path d="M0 0 C5.618 3.407 9.197 7.637 11 14 C12.378 20.666 12.513 25.998 9.289 32.117 C6.791 35.765 4.2 37.502 -0.105 38.477 C-4.885 38.921 -7.656 37.973 -11.375 34.938 C-17.039 29.251 -18.162 24.875 -18.438 17 C-18.292 11.06 -17.85 7.559 -14 3 C-9.741 -0.001 -5.125 -1.332 0 0 Z " fill="#0A0A0A" transform="translate(353,504)"/>
<path d="M0 0 C3.823 0.734 7.428 1.71 11.125 2.938 C12.159 3.277 13.193 3.616 14.258 3.965 C17 5 17 5 20 7 C19.67 8.98 19.34 10.96 19 13 C15.221 14.26 13.966 13.481 10.312 12.062 C9.319 11.682 8.325 11.302 7.301 10.91 C6.542 10.61 5.782 10.309 5 10 C4.67 12.31 4.34 14.62 4 17 C9.445 18.98 9.445 18.98 15 21 C14.01 24.465 14.01 24.465 13 28 C8.153 27.409 4.393 26.021 0 24 C-0.66 26.64 -1.32 29.28 -2 32 C-1.301 32.193 -0.603 32.387 0.117 32.586 C1.027 32.846 1.937 33.107 2.875 33.375 C4.232 33.758 4.232 33.758 5.617 34.148 C8 35 8 35 10 37 C9.34 38.98 8.68 40.96 8 43 C0.991 41.271 -5.503 39.16 -12 36 C-11.436 30.977 -10.317 26.682 -8.496 21.973 C-8.132 21.022 -8.132 21.022 -7.761 20.052 C-6.993 18.053 -6.215 16.058 -5.438 14.062 C-4.911 12.698 -4.386 11.332 -3.861 9.967 C-2.582 6.642 -1.293 3.32 0 0 Z " fill="#080808" transform="translate(214,491)"/>
<path d="M0 0 C1.373 3.243 2.72 6.495 4.062 9.75 C4.647 11.131 4.647 11.131 5.244 12.539 C5.608 13.429 5.972 14.318 6.348 15.234 C6.688 16.051 7.028 16.868 7.379 17.71 C8.077 20.285 8.047 21.557 7 24 C4.438 25.25 4.438 25.25 2 26 C1.34 25.01 0.68 24.02 0 23 C-0.412 23.784 -0.825 24.567 -1.25 25.375 C-3.112 28.168 -3.806 29.113 -7 30 C-11.409 29.92 -13.413 29.495 -16.812 26.625 C-20.678 21.986 -21.513 19.421 -21.375 13.516 C-20.739 9.252 -19.32 7.755 -16 5 C-10.034 3.483 -10.034 3.483 -7 5 C-7 4.01 -7 3.02 -7 2 C-2.25 0 -2.25 0 0 0 Z " fill="#0D0D0D" transform="translate(223,49)"/>
<path d="M0 0 C2.574 2.044 3.955 3.72 4.531 7 C4.855 16.273 1.137 22.169 -3.875 29.688 C-2.885 29.357 -1.895 29.028 -0.875 28.688 C1.458 28.648 3.792 28.643 6.125 28.688 C6.125 30.997 6.125 33.308 6.125 35.688 C3.084 36.025 0.042 36.357 -3 36.688 C-3.856 36.783 -4.712 36.878 -5.594 36.977 C-10.045 37.456 -14.389 37.805 -18.875 37.688 C-17.236 32.692 -14.316 28.749 -11.312 24.5 C-10.31 23.07 -9.309 21.639 -8.309 20.207 C-7.866 19.579 -7.423 18.951 -6.967 18.304 C-4.551 14.727 -4.719 11.969 -4.875 7.688 C-5.941 6.391 -5.941 6.391 -8.438 6.625 C-9.242 6.646 -10.046 6.666 -10.875 6.688 C-11.535 8.997 -12.195 11.308 -12.875 13.688 C-15.515 13.688 -18.155 13.688 -20.875 13.688 C-21.292 10.286 -21.487 7.706 -19.68 4.699 C-14.545 -1.533 -7.652 -3.493 0 0 Z " fill="#090909" transform="translate(325.875,509.3125)"/>
<path d="M0 0 C3.5 2.042 5.806 4.091 7 8 C7.628 15.038 5.891 21.248 4 28 C6.97 27.34 9.94 26.68 13 26 C13.495 29.465 13.495 29.465 14 33 C10.543 34.172 7.084 35.336 3.625 36.5 C2.64 36.834 1.655 37.168 0.641 37.512 C-0.3 37.828 -1.241 38.143 -2.211 38.469 C-3.08 38.762 -3.95 39.055 -4.845 39.357 C-7 40 -7 40 -9 40 C-8.262 34.083 -6.228 28.884 -4.084 23.365 C-2.379 18.771 -1.503 14.981 -2 10 C-3.833 7.732 -3.833 7.732 -6.562 7.812 C-8.947 7.73 -8.947 7.73 -10 9 C-10.368 11.328 -10.702 13.662 -11 16 C-13.31 16.66 -15.62 17.32 -18 18 C-19 17 -19 17 -19.312 13.312 C-19.249 8.867 -17.931 6.407 -15 3 C-10.653 -0.835 -5.523 -0.827 0 0 Z " fill="#090909" transform="translate(384,496)"/>
<path d="M0 0 C3.706 2.374 7.331 4.933 8.723 9.234 C8.814 9.817 8.906 10.4 9 11 C6.69 11.66 4.38 12.32 2 13 C1.608 12.34 1.216 11.68 0.812 11 C-0.854 8.708 -0.854 8.708 -3.688 8.75 C-4.451 8.832 -5.214 8.915 -6 9 C-5.646 12.713 -5.206 14.726 -2.938 17.75 C-0.298 22.177 -0.008 25.958 -1 31 C-3.527 34.346 -5.039 35.68 -9 37 C-14.734 37.541 -17.508 36.574 -22 33 C-22.577 32.546 -23.155 32.093 -23.75 31.625 C-25.54 29.298 -26.192 26.796 -27 24 C-24.583 22.478 -23.265 21.987 -20.375 22.125 C-18 23 -18 23 -16.688 25.062 C-16.461 25.702 -16.234 26.341 -16 27 C-14.02 27 -12.04 27 -10 27 C-9.604 24.386 -9.556 22.628 -11.113 20.426 C-11.571 19.873 -12.029 19.32 -12.5 18.75 C-15.143 15.264 -15.879 12.522 -15.609 8.156 C-14.652 4.768 -12.88 3.068 -10.059 1.047 C-6.536 -0.745 -3.801 -1.216 0 0 Z " fill="#090909" transform="translate(437,59)"/>
<path d="M0 0 C0.51 0.236 1.021 0.472 1.547 0.715 C1.877 2.365 2.207 4.015 2.547 5.715 C-4.203 9.715 -4.203 9.715 -6.453 9.715 C-6.123 11.035 -5.793 12.355 -5.453 13.715 C-4.793 13.385 -4.133 13.055 -3.453 12.715 C1.845 12.367 5.305 12.18 9.547 15.715 C12.927 19.643 14.215 22.673 13.934 27.762 C12.856 33.204 8.925 36.684 4.547 39.715 C1.074 40.873 -1.814 40.784 -5.453 40.715 C-6.71 37.809 -7.453 35.919 -7.453 32.715 C-6.754 32.594 -6.056 32.472 -5.336 32.348 C-3.971 32.096 -3.971 32.096 -2.578 31.84 C-1.221 31.596 -1.221 31.596 0.164 31.348 C2.712 30.884 2.712 30.884 4.547 28.715 C4.912 25.869 4.949 24.328 3.359 21.902 C0.821 20.239 -0.455 20.227 -3.453 20.715 C-6.726 22.618 -6.726 22.618 -9.453 24.715 C-12.197 18.823 -14.517 12.92 -16.453 6.715 C-14.21 5.512 -11.96 4.328 -9.703 3.152 C-8.752 2.639 -8.752 2.639 -7.781 2.115 C-3.002 -0.349 -3.002 -0.349 0 0 Z " fill="#0A0A0A" transform="translate(410.453125,482.28515625)"/>
<path d="M0 0 C3.374 2.051 6.22 4.441 8 8 C8.435 12.262 8.471 15.917 6.75 19.875 C4.123 23.065 1.923 24.692 -2 26 C-6.153 26.392 -8.49 26.255 -12.25 24.375 C-16.354 20.83 -17.768 17.859 -18.438 12.5 C-17.794 7.356 -15.706 4.462 -11.812 1.125 C-7.776 -0.489 -4.274 -0.926 0 0 Z " fill="#0A0A0A" transform="translate(513,157)"/>
<path d="M0 0 C4.36 2.221 7.133 4.436 9 9 C9.581 12.969 9.409 16.053 7.812 19.75 C3.08 25.624 3.08 25.624 -1.336 26.422 C-5.676 26.656 -8.988 26.539 -12.5 23.812 C-15.854 20.039 -16.727 17.605 -17.562 12.688 C-16.759 7.419 -13.834 4.556 -10 1 C-6.783 -0.608 -3.489 -0.468 0 0 Z " fill="#0A0A0A" transform="translate(166,81)"/>
<path d="M0 0 C2.31 0.66 4.62 1.32 7 2 C5.411 7.361 3.81 12.708 2 18 C3.031 17.732 4.062 17.464 5.125 17.188 C9 17 9 17 12.438 19 C15 22 15 22 15.348 25.16 C14.939 29.676 13.694 33.267 12 37.438 C11.571 38.535 11.571 38.535 11.133 39.654 C10.432 41.44 9.718 43.221 9 45 C6.69 44.34 4.38 43.68 2 43 C2.448 39.413 3.22 36.275 4.562 32.938 C5.791 29.829 6.317 27.383 6 24 C4.35 24 2.7 24 1 24 C-1.955 28.892 -4.107 33.606 -6 39 C-8.31 38.34 -10.62 37.68 -13 37 C-11.507 28.734 -8.502 21.192 -5.375 13.438 C-4.854 12.13 -4.333 10.822 -3.812 9.514 C-2.548 6.34 -1.277 3.169 0 0 Z " fill="#0C0C0C" transform="translate(383,35)"/>
<path d="M0 0 C3.662 1.592 6.202 3.404 8 7 C8.24 10.017 8.174 12.98 8 16 C5.729 15.859 3.458 15.712 1.188 15.562 C-0.077 15.481 -1.342 15.4 -2.645 15.316 C-6 15 -6 15 -9 14 C-8.34 15.65 -7.68 17.3 -7 19 C-6.313 18.905 -5.626 18.809 -4.918 18.711 C-4.017 18.6 -3.116 18.489 -2.188 18.375 C-0.848 18.201 -0.848 18.201 0.52 18.023 C3 18 3 18 6 20 C4.63 23.161 4.011 23.993 1 26 C-3.602 26.754 -7.17 26.4 -11.375 24.375 C-15.346 20.782 -16.775 17.8 -17.438 12.5 C-16.813 7.508 -14.607 4.786 -11.312 1.125 C-7.617 -0.673 -4.027 -0.533 0 0 Z " fill="#0D0D0D" transform="translate(338,38)"/>
<path d="M0 0 C8.58 0 17.16 0 26 0 C26 2.64 26 5.28 26 8 C23.03 8 20.06 8 17 8 C17.008 8.99 17.008 8.99 17.016 10 C17.037 13.021 17.05 16.042 17.062 19.062 C17.071 20.101 17.079 21.139 17.088 22.209 C17.105 27.587 16.954 32.703 16 38 C13.36 38 10.72 38 8 38 C7.971 34.313 7.953 30.625 7.938 26.938 C7.929 25.899 7.921 24.861 7.912 23.791 C7.895 18.413 8.046 13.297 9 8 C6.03 8 3.06 8 0 8 C0 5.36 0 2.72 0 0 Z " fill="#0C0C0C" transform="translate(296,23)"/>
<path d="M0 0 C4.463 0.797 7.015 2.505 9.649 6.265 C10.758 8.11 11.796 9.978 12.812 11.875 C13.172 12.525 13.531 13.174 13.9 13.844 C14.776 15.432 15.64 17.028 16.5 18.625 C14.326 21.125 12.77 22.061 9.5 22.625 C8.981 21.687 8.461 20.748 7.926 19.781 C7.222 18.562 6.518 17.343 5.812 16.125 C5.473 15.505 5.133 14.885 4.783 14.246 C3.645 12.219 3.645 12.219 1.5 9.625 C-1.184 9.08 -1.184 9.08 -3.5 9.625 C-4.46 16.823 -1.162 21.598 2.5 27.625 C0.188 29.187 0.188 29.187 -2.5 30.625 C-6.1 29.425 -6.369 28.641 -8.199 25.441 C-8.686 24.596 -9.172 23.751 -9.674 22.881 C-10.173 21.992 -10.673 21.103 -11.188 20.188 C-11.699 19.303 -12.21 18.418 -12.736 17.506 C-16.5 10.908 -16.5 10.908 -16.5 8.625 C-14.188 6.938 -14.188 6.938 -11.5 5.625 C-10.51 5.955 -9.52 6.285 -8.5 6.625 C-7.819 5.635 -7.139 4.645 -6.438 3.625 C-4.174 0.919 -3.698 0.66 0 0 Z " fill="#0E0E0E" transform="translate(188.5,63.375)"/>
<path d="M0 0 C3.653 1.25 4.781 1.671 7 5 C6.423 5.664 5.845 6.328 5.25 7.012 C4.507 7.895 3.765 8.778 3 9.688 C2.257 10.558 1.515 11.428 0.75 12.324 C-1.159 15.242 -1.478 16.591 -1 20 C0.039 21.229 0.039 21.229 2.262 21.406 C6.299 20.807 7.389 18.683 9.812 15.5 C10.603 14.479 11.393 13.458 12.207 12.406 C12.799 11.612 13.39 10.818 14 10 C15.98 11.32 17.96 12.64 20 14 C18.589 18.263 16.531 20.963 13.5 24.25 C12.706 25.121 11.912 25.993 11.094 26.891 C8.329 29.676 6.641 30.22 2.812 30.438 C-2.004 30.414 -4.285 28.768 -7.688 25.508 C-10.224 22.594 -10.68 19.633 -10.699 15.797 C-9.153 9.61 -4.093 4.729 0 0 Z " fill="#0B0B0B" transform="translate(446,83)"/>
<path d="M0 0 C2.5 1.562 2.5 1.562 4 3 C3.67 5.31 3.34 7.62 3 10 C2.278 9.67 1.556 9.34 0.812 9 C-2.059 7.979 -3.985 7.674 -7 8 C-7.66 8.66 -8.32 9.32 -9 10 C-8.812 13.826 -8.812 13.826 -7 17 C-4.672 17.368 -2.338 17.702 0 18 C-0.33 20.31 -0.66 22.62 -1 25 C-4.549 25.93 -6.558 26.153 -10.062 24.938 C-13.948 22.375 -17.359 19.793 -18.449 15.043 C-18.78 9.069 -16.27 5.633 -12.438 1.188 C-8.718 -1.885 -4.377 -1.03 0 0 Z " fill="#0C0C0C" transform="translate(367,44)"/>
<path d="M0 0 C-0.33 1.98 -0.66 3.96 -1 6 C-2.32 6.33 -3.64 6.66 -5 7 C-5 7.99 -5 8.98 -5 10 C-1.455 8.602 -1.455 8.602 2 7 C5.874 6.641 8.149 6.433 11.438 8.625 C13.496 11.754 13.591 13.308 13 17 C11.245 20.381 9.941 22.455 6.625 24.375 C3.668 25.079 1.029 25.141 -2 25 C-1.34 23.02 -0.68 21.04 0 19 C1.65 18.67 3.3 18.34 5 18 C5.33 16.68 5.66 15.36 6 14 C5.004 14.451 5.004 14.451 3.988 14.91 C3.105 15.29 2.222 15.671 1.312 16.062 C0.442 16.445 -0.428 16.828 -1.324 17.223 C-4.356 18.103 -6.007 17.907 -9 17 C-10.812 15.875 -10.812 15.875 -12 14 C-12.504 10.66 -12.733 8.219 -10.945 5.246 C-7.392 0.883 -5.481 -0.144 0 0 Z " fill="#101010" transform="translate(130,110)"/>
<path d="M0 0 C0 1.98 0 3.96 0 6 C-1.98 6.99 -1.98 6.99 -4 8 C-4 8.66 -4 9.32 -4 10 C-1.422 9.523 0.155 8.898 2.375 7.438 C5.583 5.681 7.392 5.463 11 6 C13.375 7.562 13.375 7.562 15 10 C15.485 13.81 15.337 16.219 13.812 19.75 C11.725 22.341 10.03 23.629 7 25 C4.188 25.188 4.188 25.188 2 25 C2 23.02 2 21.04 2 19 C3.98 18.34 5.96 17.68 8 17 C8 16.01 8 15.02 8 14 C4.452 15.369 4.452 15.369 1.125 17.188 C-2.119 18.428 -4.672 17.74 -8 17 C-10 15 -10 15 -10.438 11.25 C-10.34 6.378 -8.418 4.336 -5 1 C-3 0 -3 0 0 0 Z " fill="#0E0E0E" transform="translate(112,129)"/>
<path d="M0 0 C3.062 2 3.062 2 5 4 C4.67 4.99 4.34 5.98 4 7 C2.062 7.812 2.062 7.812 0 8 C-0.66 7.34 -1.32 6.68 -2 6 C-4.069 5.357 -4.069 5.357 -6 5 C-4.627 8.231 -3.194 9.822 -0.375 11.875 C2.304 14.09 2.912 14.602 3.688 18.125 C2.832 21.704 2.027 22.904 -1 25 C-4.905 26.065 -7.031 26.44 -10.75 24.75 C-14.761 21.63 -14.761 21.63 -16 20 C-16 18.68 -16 17.36 -16 16 C-13.125 15.812 -13.125 15.812 -10 16 C-9.34 16.99 -8.68 17.98 -8 19 C-7.01 19 -6.02 19 -5 19 C-6.262 15.214 -7.653 14.959 -11 13 C-13.327 9.509 -13.503 8.108 -13 4 C-9.974 -0.999 -5.313 -0.983 0 0 Z " fill="#0A0A0A" transform="translate(247,514)"/>
<path d="M0 0 C2.31 0.33 4.62 0.66 7 1 C7 3.64 7 6.28 7 9 C7.99 9 8.98 9 10 9 C9.67 11.31 9.34 13.62 9 16 C7.68 16 6.36 16 5 16 C4.951 16.724 4.902 17.449 4.852 18.195 C4.448 23.415 3.987 28.098 2 33 C-0.31 33 -2.62 33 -5 33 C-4.69 30.583 -4.377 28.166 -4.062 25.75 C-3.932 24.727 -3.932 24.727 -3.799 23.684 C-3.368 20.4 -2.912 17.188 -2 14 C-2.66 14 -3.32 14 -4 14 C-4 12.02 -4 10.04 -4 8 C-3.01 8 -2.02 8 -1 8 C-0.67 5.36 -0.34 2.72 0 0 Z " fill="#0A0A0A" transform="translate(261,510)"/>
<path d="M0 0 C0 0.66 0 1.32 0 2 C0.742 1.67 1.485 1.34 2.25 1 C5 0 5 0 9 0 C9.495 3.465 9.495 3.465 10 7 C9.031 7.248 8.061 7.495 7.062 7.75 C5.547 8.369 5.547 8.369 4 9 C3.031 11.032 3.031 11.032 3 13 C1.02 13.33 -0.96 13.66 -3 14 C-3 13.34 -3 12.68 -3 12 C-11.91 14.475 -11.91 14.475 -21 17 C-21.66 14.69 -22.32 12.38 -23 10 C-12.626 5.592 -12.626 5.592 -7 5 C-7 3.68 -7 2.36 -7 1 C-4 0 -4 0 0 0 Z " fill="#0A0A0A" transform="translate(536,200)"/>
<path d="M0 0 C2.543 0.344 4.495 0.65 6.625 2.125 C10.606 7.553 11.744 12.414 11 19 C9 22 9 22 7 24 C4.25 24 4.25 24 1 23 C-3.187 18.255 -3.442 12.578 -3.434 6.516 C-2.933 3.612 -1.928 2.188 0 0 Z " fill="#F6F6F6" transform="translate(346,511)"/>
<path d="M0 0 C0.99 0 1.98 0 3 0 C3.33 2.64 3.66 5.28 4 8 C2.68 8.33 1.36 8.66 0 9 C0.133 9.724 0.266 10.449 0.402 11.195 C1.303 16.125 2.198 21.053 3 26 C0.094 27.257 -1.796 28 -5 28 C-6.009 24.586 -7.005 21.168 -8 17.75 C-8.286 16.782 -8.572 15.814 -8.867 14.816 C-9.138 13.882 -9.409 12.947 -9.688 11.984 C-10.065 10.696 -10.065 10.696 -10.449 9.382 C-11 7 -11 7 -11 3 C-4.25 2 -4.25 2 -2 2 C-1.34 1.34 -0.68 0.68 0 0 Z " fill="#101010" transform="translate(241,43)"/>
<path d="M0 0 C0.66 0.33 1.32 0.66 2 1 C2.689 3.327 3.355 5.661 4 8 C4.99 9.485 4.99 9.485 6 11 C6 11.99 6 12.98 6 14 C3.353 15.461 2.106 16 -1 16 C-1.66 15.01 -2.32 14.02 -3 13 C-8.799 11.985 -13.81 14.703 -19 17 C-19.99 14.69 -20.98 12.38 -22 10 C-19.646 8.894 -17.292 7.791 -14.938 6.688 C-14.281 6.379 -13.624 6.07 -12.947 5.752 C-10.969 4.826 -8.985 3.912 -7 3 C-6.344 2.691 -5.688 2.383 -5.012 2.065 C-3.368 1.316 -1.686 0.65 0 0 Z " fill="#0C0C0C" transform="translate(527,181)"/>
<path d="M0 0 C7.332 3.851 14.162 8.337 21 13 C20.25 15.438 20.25 15.438 19 18 C17.192 18.818 17.192 18.818 15 19 C12.894 18.012 12.894 18.012 10.672 16.473 C9.873 15.928 9.073 15.383 8.25 14.822 C7.013 13.951 7.013 13.951 5.75 13.062 C4.91 12.486 4.069 11.909 3.203 11.314 C1.127 9.887 -0.94 8.449 -3 7 C-2.387 4.038 -1.746 2.619 0 0 Z " fill="#0D0D0D" transform="translate(94,148)"/>
<path d="M0 0 C6.464 5.277 12.249 11.103 17 18 C17 18.66 17 19.32 17 20 C15 21.625 15 21.625 13 23 C8.593 21.357 5.904 18.011 2.812 14.625 C1.994 13.759 1.994 13.759 1.158 12.875 C0.638 12.31 0.118 11.746 -0.418 11.164 C-0.89 10.653 -1.362 10.142 -1.848 9.616 C-3.201 7.719 -3.741 6.315 -4 4 C-2.062 1.75 -2.062 1.75 0 0 Z " fill="#0B0B0B" transform="translate(138,97)"/>
<path d="M0 0 C2.312 0.875 2.312 0.875 4.312 2.875 C4.125 6.375 4.125 6.375 3.312 9.875 C0.08 12.03 -0.939 12.344 -4.688 11.875 C-6.5 10.688 -6.5 10.688 -7.688 8.875 C-8.188 6.438 -8.188 6.438 -7.688 3.875 C-5.136 1.104 -3.836 -0.178 0 0 Z " fill="#F1F1F1" transform="translate(509.6875,164.125)"/>
<path d="M0 0 C3.4 0.145 5.343 0.428 7.938 2.688 C9.372 5.81 8.871 7.735 8 11 C7 12 7 12 4.188 12.312 C1 12 1 12 -1.438 10.375 C-3 8 -3 8 -2.875 4.875 C-2 2 -2 2 0 0 Z " fill="#F0F0F0" transform="translate(159,88)"/>
<path d="M0 0 C1.875 1.188 1.875 1.188 3 3 C2.859 5.825 2.355 7.485 0.75 9.812 C-1.633 11.43 -3.179 11.362 -6 11 C-8 9 -8 9 -8.312 6.062 C-8 3 -8 3 -6.812 1.125 C-4.345 -0.407 -2.855 -0.428 0 0 Z " fill="#F6F6F6" transform="translate(475,116)"/>
<path d="M0 0 C1 1 1 1 1.25 4.438 C1.168 5.613 1.085 6.789 1 8 C-2.452 10.302 -3.947 10.345 -8 10 C-10 8 -10 8 -10.312 5.562 C-10 3 -10 3 -8.938 1.188 C-5.978 -0.626 -3.384 -0.251 0 0 Z " fill="#F3F3F3" transform="translate(496,140)"/>
<path d="M0 0 C3.562 0.25 3.562 0.25 7 1 C8.381 3.763 8.191 5.947 8 9 C6 11 6 11 3.562 11.312 C1 11 1 11 -0.812 9.875 C-2.528 7.166 -2.334 5.137 -2 2 C-1.34 1.34 -0.68 0.68 0 0 Z " fill="#F9F9F9" transform="translate(212,60)"/>
<path d="M0 0 C3.062 0.188 3.062 0.188 5.062 2.188 C4.733 5.485 4.44 6.81 2.062 9.188 C-2.493 8.632 -2.493 8.632 -3.938 7.188 C-4.062 4.188 -4.062 4.188 -3.938 1.188 C-2.938 0.188 -2.938 0.188 0 0 Z " fill="#111111" transform="translate(276.9375,536.8125)"/>
<path d="M0 0 C2.5 0.25 2.5 0.25 4.5 2.25 C4.812 4.75 4.812 4.75 4.5 7.25 C1.5 9.25 1.5 9.25 -1.125 8.938 C-3.5 8.25 -3.5 8.25 -4.5 7.25 C-4.688 4.812 -4.688 4.812 -4.5 2.25 C-2.5 0.25 -2.5 0.25 0 0 Z " fill="#0E0E0E" transform="translate(84.5,141.75)"/>
<path d="M0 0 C2.562 0.188 2.562 0.188 4.562 2.188 C4.812 4.688 4.812 4.688 4.562 7.188 C2.562 9.188 2.562 9.188 0.062 9.438 C-2.438 9.188 -2.438 9.188 -4.438 7.188 C-3.733 0.287 -3.733 0.287 0 0 Z " fill="#0E0E0E" transform="translate(129.4375,87.8125)"/>
<path d="M0 0 C3.63 0.33 7.26 0.66 11 1 C10.34 2.32 9.68 3.64 9 5 C5.5 5.875 5.5 5.875 2 6 C1.34 5.34 0.68 4.68 0 4 C0 2.68 0 1.36 0 0 Z " fill="#EDEDED" transform="translate(329,52)"/>
<path d="M0 0 C2.438 0.375 2.438 0.375 4.438 2.375 C4.438 3.365 4.438 4.355 4.438 5.375 C1.137 5.045 -2.163 4.715 -5.562 4.375 C-2.562 0.375 -2.562 0.375 0 0 Z " fill="#ECECEC" transform="translate(334.5625,42.625)"/>
</svg>